<?xml version="1.0" encoding="iso-8859-1"?>
<!-- Generator: Adobe Illustrator 14.0.0, SVG Export Plug-In . SVG Version: 6.00 Build 43363)  -->
<!DOCTYPE svg PUBLIC "-//W3C//DTD SVG 1.1//EN" "http://www.w3.org/Graphics/SVG/1.1/DTD/svg11.dtd">
<svg version="1.1" id="Logo" xmlns="http://www.w3.org/2000/svg" xmlns:xlink="http://www.w3.org/1999/xlink" x="0px" y="0px"
	 width="1000px" height="1000px" viewBox="0 0 1000 1000" style="enable-background:new 0 0 1000 1000;" xml:space="preserve">
<circle style="fill:#B40F01;" cx="500" cy="450" r="225.333"/>
<g>
	<path style="fill:#FFFFFF;" d="M395.7,396.82c1.855,10.843,11.976,10.715,13.989,10.579c3.288-0.223,5.644-1.4,7.411-3.707
		c2.197-2.866,3.204-7.057,3.568-11.296c-2.206-9.255-3.05-19.798-2.554-31.73c0.475-11.413,3.027-22.241,7.411-31.942
		c-0.033-0.108-0.07-0.214-0.096-0.326c-0.302-1.249-3.257-11.962-15.267-10.814c-4.84,0.46-8.229,2.117-10.358,5.064
		c-6.062,8.39-1.943,26.422,0.518,37.196c0.453,1.982,0.881,3.855,1.212,5.496c1.657,8.185-0.941,14.237-3.234,19.577
		C396.448,389.231,394.984,392.639,395.7,396.82z"/>
	<path style="fill:#FFFFFF;" d="M430.537,483.895c2.986-0.537,5.594-0.987,7.983-1.298c-6.15-22.27-12.66-45.369-19.202-67.844
		c-2.353,1.339-5.021,2.183-7.944,2.506c6.326,22.194,12.568,44.89,18.448,66.769C430.056,483.984,430.287,483.94,430.537,483.895z"
		/>
	<path style="fill:#FFFFFF;" d="M565.131,315.261c-1.609-6.512-5.821-17.237-8.506-22.122c-3.101-0.885-6.335-2.014-9.679-3.423
		c-7.131-3.006-12.05-5.308-16.002-7.157c-3.246-1.519-5.765-2.694-8.248-3.668l-7.187-1.955
		c-6.574-0.977-13.491-0.226-16.118,0.274c-2.716,0.515-5.331-1.266-5.846-3.978c-0.516-2.713,1.265-5.33,3.978-5.846
		c0.603-0.114,14.898-2.761,26.701,1.4c3.576,1.26,6.834,2.785,10.958,4.715c3.874,1.813,8.696,4.069,15.648,7
		c20.099,8.471,34.812,4.998,36.259,2.26c0.798-2.595,0.103-5.754-2.088-9.332c-8.554-13.972-35.113-27.922-53.146-31.061
		c-30.422-5.294-57.315,1.228-73.779,17.9c-11.959,12.108-19.533,37.407-23.032,51.669c11.554-5.017,33.419-11.676,68.077-11.676
		C532.106,300.262,553.992,309.853,565.131,315.261z"/>
	<path style="fill:#FFFFFF;" d="M573.593,328.087c-0.088,0.528-0.263,1.017-0.497,1.466c3.91,9.196,6.439,19.565,7.456,30.873
		c1.053,11.69,0.577,22.214-1.394,31.535c0.343,4.773,1.414,9.671,3.951,12.84c1.822,2.276,4.206,3.412,7.501,3.574
		c2.013,0.097,12.118,0.043,13.737-10.813c0.622-4.191-0.917-7.573-2.865-11.855c-2.41-5.295-5.142-11.298-3.665-19.514
		c0.312-1.736,0.733-3.744,1.18-5.87c2.31-11.014,6.176-29.447-0.213-38.267c-2.281-3.15-5.83-4.951-10.85-5.506
		C576.063,315.239,573.812,326.768,573.593,328.087z"/>
	<path style="fill:#FFFFFF;" d="M480.095,432.093c0.257-0.249,0.53-0.487,0.835-0.702l13.936-9.783
		c3.176-2.229,8.334-2.176,11.463,0.119l13.824,10.141c0.025,0.019,0.047,0.04,0.072,0.059c16.379-2.589,28.872-8.471,37.231-17.617
		c10.814-11.832,15.233-29.659,13.135-52.988c-1.357-15.083-5.484-27.884-12.076-38.142c-11.274-5.323-30.247-12.917-55.396-12.917
		c-29.578,0-49.171,5.111-60.42,9.403c-9.206,11.913-13.983,26.686-14.596,41.416c-1.023,24.599,4.011,42.323,15.392,54.188
		C451.932,424.061,464.21,429.68,480.095,432.093z M452.896,392.412c-2.67-2.809,9.883-7.07,14.146-11.534
		c2.956-3.095,9.401-2.388,12.068,0.42c2.666,2.811,2.038,7.175-1.405,9.751C474.264,393.624,455.564,395.221,452.896,392.412z
		 M525.956,405.261c-6.536,4.341-12.172,7.414-25.225,7.414c-16.051,0-24.703-7.47-25.063-7.788
		c-1.864-1.645-2.042-4.488-0.397-6.352c1.636-1.855,4.461-2.041,6.326-0.42c0.323,0.273,6.738,5.56,19.135,5.56
		c11.345,0,15.47-2.739,20.247-5.911c2.069-1.374,4.861-0.812,6.238,1.259C528.591,401.093,528.026,403.886,525.956,405.261z
		 M547.115,391.746c-2.695,2.398-17.856,2.686-23.921-1.285c-3.559-2.331-4.635-8.013-1.943-10.413
		c2.689-2.396,7.036-3.652,10.001-0.634C536.582,384.837,549.805,389.348,547.115,391.746z M518.554,329.367
		c0.926-4.05,13.093-9.203,19.978-7.977c6.887,1.228,17.959,7.68,17.033,11.729c-0.93,4.053-13.502,5.235-20.391,4.009
		C528.289,335.901,517.626,333.418,518.554,329.367z M519.226,349.75c6.432-4.792,21.73-10.091,33.59,4.146
		c1.591,1.91,1.333,4.747-0.577,6.338c-0.841,0.701-1.862,1.042-2.878,1.042c-1.289,0-2.569-0.551-3.459-1.62
		c-9.172-11.01-20.102-3.561-21.318-2.675c-2.001,1.456-4.813,1.031-6.282-0.962C516.833,354.027,517.24,351.229,519.226,349.75z
		 M486.082,363.875c1.27-2.134,4.032-2.837,6.168-1.565c2.123,1.264,2.828,4,1.587,6.131c-0.137,0.246-2.306,4.267-0.011,8.277
		c1.173,2.049,3.441,2.665,4.689,2.849c2.479,0.368,5.162-0.278,6.524-1.568c2.35-2.222,3.103-4.389,0.705-10.072
		c-0.967-2.29,0.106-4.929,2.396-5.896c2.291-0.967,4.93,0.107,5.896,2.396c2.451,5.807,4.346,13.34-2.812,20.11
		c-2.797,2.646-6.95,4.134-11.276,4.134c-0.912,0-1.832-0.066-2.748-0.202c-4.943-0.73-8.916-3.316-11.185-7.281
		C482.053,374.266,484.192,367.049,486.082,363.875z M482.091,356.496c-1.285,2.127-4.051,2.811-6.179,1.524
		c-11.999-7.248-20.933,2.057-21.912,3.142c-0.891,0.987-2.122,1.491-3.357,1.491c-1.065,0-2.133-0.375-2.988-1.137
		c-1.847-1.648-2.025-4.468-0.389-6.325c4.973-5.64,18.332-13.918,33.3-4.874C482.693,351.603,483.376,354.369,482.091,356.496z
		 M462.968,321.699c7.415-1.294,18.341,3.473,19.207,7.668c0.861,4.199-8.629,7.3-16.045,8.594
		c-7.412,1.294-20.843,0.11-21.704-4.086C443.557,329.68,455.554,322.991,462.968,321.699z"/>
	<path style="fill:#FFFFFF;" d="M464.771,492.309c-0.118-0.287-0.238-0.577-0.357-0.873c-0.692-0.572-2.42-1.108-4.679-1.528
		c0.702,1.176,1.31,2.485,1.821,3.934c0.993,2.812,1.986,5.763,2.891,8.758C466.946,497.646,466.155,495.675,464.771,492.309z"/>
	<path style="fill:#FFFFFF;" d="M600.892,486.137c-1.365-0.836-2.553-1.575-3.551-2.2c-0.762,2.047-1.719,4.139-2.85,6.265
		c1.304-0.255,2.688-0.48,4.269-0.73c0.269-0.042,0.545-0.086,0.829-0.132C600.056,488.349,600.493,487.242,600.892,486.137z"/>
	<path style="fill:#FFFFFF;" d="M581.477,511.794c-0.785,2.554-1.674,5.447-3.578,8.753c-0.988,1.713-2.098,3.16-3.076,4.436
		c-2.71,3.534-2.941,4.225-2.064,6.157c2.012,4.431,4.085,4.415,5.531,4.43c0.882,0,1.827-0.107,2.827-0.222
		c1.075-0.122,2.188-0.248,3.32-0.248c3.312,0,5.863,1.189,7.582,3.536c2.276,3.106,5.278,4.683,8.922,4.683
		c3.686,0,7.194-1.662,8.757-3.304c5.635-5.921,10.213-17.035,9.995-24.271c-0.026-0.891,0.211-1.75,0.66-2.483
		c0.118-0.286,0.276-0.708,0.479-1.238c0.878-2.29,2.348-6.123,4.488-10.219c0.291-0.557,0.56-1.065,0.817-1.55
		c-2.842-1.392-6.003-3.031-9.565-4.986c-2.723-1.495-5.367-3-7.83-4.437c-0.697,1.749-1.51,3.5-2.421,4.968
		c-0.684,1.102-1.809,1.855-3.087,2.068c-1.123,0.186-2.137,0.347-3.066,0.494c-5.08,0.804-6.98,1.105-10.356,2.936
		C583.681,504.62,582.851,507.32,581.477,511.794z"/>
	<path style="fill:#FFFFFF;" d="M457.959,529.341c2.697-4.746,1.052-15.682-4.89-32.502c-1.502-4.254-3.648-5.689-8.503-5.689
		c-3.264,0-7.213,0.665-12.437,1.604c-1.27,0.228-2.297,0.451-3.172,0.64c-1.753,0.379-3.138,0.678-4.73,0.678
		c-2.317,0-4.385-0.662-6.87-1.738c-1.703,4.148-3.682,8.752-5.83,13.342c-1.416,3.025-2.784,5.795-4.114,8.324
		c10.418,4.145,12.811,6.507,17.279,12.935c4.252,6.118,7.488,7.237,12.329,7.237h0.001c4.21,0,9.766-1.049,17.761-2.649
		C456.295,531.219,457.274,530.546,457.959,529.341z"/>
	<path style="fill:#FFFFFF;" d="M417.302,532.07c-3.446-4.959-4.411-6.33-14.406-10.184c-0.66,1.041-1.31,2.011-1.952,2.921
		c1.124,3.703,2.543,6.956,4.333,9.583c9.082,13.338,20.026,19.857,33.475,23.028c-1.188-4.624-2.419-9.401-3.692-14.316
		C427.601,542.626,422.35,539.332,417.302,532.07z"/>
	<path style="fill:#FFFFFF;" d="M340.949,463.738c-4.501,30.005,32.42,56.813,46.436,60.96c0.931-0.381,6.036-3.381,16.096-25.452
		c5.904-12.953,10.422-25.776,10.467-25.904c0.374-1.065,1.081-1.909,1.954-2.489c-4.934-18.14-10.065-36.605-15.24-54.684
		c-7.065-2.325-13.159-7.961-14.819-17.662c-1.215-7.096,1.167-12.643,3.269-17.536c1.368-3.186,2.603-6.07,2.877-9.258
		c-0.316,0.646-0.759,1.239-1.363,1.715C390.217,373.752,349.53,406.533,340.949,463.738z"/>
	<path style="fill:#FFFFFF;" d="M664.855,556.398c-6.313-22.178-21.546-34.687-35.416-41.684c-0.069,0.181-0.142,0.367-0.204,0.53
		c-0.198,0.517-0.372,0.971-0.539,1.374c-0.152,9.493-5.483,22.249-12.479,29.601c-3.526,3.704-9.522,6.099-15.276,6.099
		c-0.279,0-0.555-0.013-0.831-0.023c1.512,14.807,1.646,31.161-1.026,34.291c-6.877,8.054-67.327,0.906-95.799-0.188
		c14.517,23.722,78.223,32.264,106.779,30.378C638.562,614.894,673.623,587.199,664.855,556.398z"/>
	<path style="fill:#FFFFFF;" d="M591.407,418.395c-0.432,0-0.861-0.011-1.29-0.032c-6.112-0.302-11.24-2.838-14.83-7.332
		c-0.665-0.832-1.254-1.717-1.791-2.633c-2.35,4.669-5.224,8.903-8.657,12.659c-10.074,11.021-24.803,18.004-43.915,20.884
		l-15.764,18.903c-2.485,2.98-6.542,2.972-9.015-0.019l-15.328-18.535c-19.192-2.541-34.138-9.26-44.536-20.1
		c-2.612-2.723-4.93-5.692-6.973-8.901c6.446,22.177,12.854,44.93,18.912,66.87c0.297-0.065,0.602-0.11,0.918-0.113
		c7.595-0.073,20.753,0.829,23.527,7.787c0.143,0.359,0.287,0.709,0.428,1.053c2.471,6.009,3.718,11.077-2.78,21.609
		c-0.752,1.219-1.992,1.952-3.312,2.105c1.622,8.131,1.829,15.825-1.218,21.187c-0.657,1.156-1.461,2.165-2.375,3.045
		c1.381,5.224,3.647,13.799,6.209,23.488c2.342,0.029,4.732,0.043,7.187,0.043c3.353,0,6.384-0.015,9.167-0.038
		c13.412,2.506,96.537,16.781,96.537,16.781c1.11,0.191,2.199-0.073,3.062-0.662c0.869-0.594,1.516-1.518,1.736-2.631
		c0,0,2.001-10.004,4.711-23.595c-1.67-0.849-3.223-1.949-4.631-3.279l-2.012,10.009l-0.588-12.835
		c-0.09-0.008-0.199-0.014-0.352-0.014c-0.622,0-1.438,0.093-2.302,0.19c-0.879,0.1-1.849,0.209-2.878,0.256l0.822,17.979
		l-19.681-28.697c0.004-0.119,0.006-0.233,0.006-0.348c1.032-0.735,2.04-1.481,3.045-2.228c-0.534-3.376,0.506-6.136,1.903-8.444
		c-1.895,1.511-3.841,3.015-5.874,4.505l-7.191-41.92l44.285-1.939c-1.441-0.908-2.331-1.482-2.45-1.56
		c-1.325-0.859-2.117-2.266-2.247-3.769l-36.988,1.604c1.228-1.597,2.352-3.195,3.351-4.789c4.259-6.775,6.032-12.955,5.242-17.966
		l28.788,18.533c0.271-1.016,0.777-3.155,1.072-5.91l-26.333-16.948c9.961,0.787,19.848,2.151,25.421,5.058
		c-1.792-4.915-5.937-9.26-12.912-15.417c-2.069-1.828-2.267-4.987-0.438-7.058c1.827-2.069,4.986-2.267,7.058-0.439
		c10.501,9.271,16.038,15.798,17.162,25.743c0.673,5.961-0.046,11.419-0.746,14.883c19.296,12.224,38.378,21.68,44.019,21.817
		c3.688-8.164,8.048-25.144,9.294-42.276c1.141-15.671,0.2-37.209-10.759-50.824c-12.487-15.516-26.327-25.574-37.616-31.926
		c0.32,3.243,1.635,6.145,3.096,9.355c2.208,4.853,4.711,10.353,3.654,17.468C612.228,412.53,601.538,418.394,591.407,418.395z
		 M473.312,544.535c-3.098-4.537-1.623-16.447,3.188-31.7l6.93,39.41C479.188,550.668,475.753,548.11,473.312,544.535z
		 M482.203,513.035c4.363,2.344,10.593,2.855,18.187,1.407c1.643-0.313,3.329-0.722,5.044-1.203l-16.349,38.192L482.203,513.035z
		 M511.668,512.765l38.146,21.192c-21.186,13.659-41.089,20.602-55.833,20.182L511.668,512.765z M505.742,558.7
		c5.413-0.938,11.186-2.562,17.173-4.799c0.221,0.169,0.462,0.315,0.738,0.417l39.407,14.169L505.742,558.7z M555.904,537.077
		l20.886,30.454l-46.414-16.688c8.188-3.646,16.654-8.341,25.049-13.934C555.579,536.966,555.737,537.022,555.904,537.077z
		 M554.198,530.021l-37.621-20.874c5.428-2.441,10.95-5.548,16.315-9.214c5.261-3.593,10.075-7.522,14.268-11.604L554.198,530.021z
		 M553.542,471.99c-5.058,8.051-13.502,16.347-23.776,23.361c-10.275,7.019-21.078,11.864-30.415,13.645
		c-8.433,1.607-14.673,0.471-17.123-3.117c-2.45-3.587-1.234-9.814,3.333-17.085c5.061-8.052,13.506-16.348,23.781-23.361
		c10.27-7.016,21.073-11.858,30.414-13.639c8.432-1.607,14.671-0.473,17.122,3.115C559.326,458.497,558.11,464.723,553.542,471.99z"
		/>
</g>
<g>
	<path style="fill:#FFFFFF;" d="M489.114,582.536l-7.906,5.916c13.879,8.105,23.314,18.502,28.82,25.861
		c0.372-3.948-0.412-9.454-4.876-15.93C500.718,591.95,492.969,585.53,489.114,582.536z"/>
	<path style="fill:#FFFFFF;" d="M464.967,581.025c-3.05-11.645-6.647-25.276-10.646-40.236c-3.482,0.689-6.459,1.25-9.104,1.654
		c3.429,13.255,6.553,25.486,9.283,36.269C457.997,579.105,461.497,579.878,464.967,581.025z"/>
	<path style="fill:#FFFFFF;" d="M406.112,611.806c-0.202-1.169,0.126-2.367,0.895-3.271c0.76-0.895,1.875-1.409,3.047-1.409
		c0.012,0,0.024,0,0.037,0l7.12,0.066l-6.54-5.684c-0.802-0.698-1.294-1.687-1.367-2.747c-0.072-1.061,0.28-2.106,0.98-2.906
		c0.301-0.344,3.938-4.421,10.228-8.549c-12.523-0.552-21.834-1.811-22.882-4.3c-2.722-6.47,0.921-24.792,4.387-38.806
		c-1.275-1.58-2.523-3.256-3.741-5.044c-1.44-2.114-2.68-4.538-3.742-7.215c-2.399,1.896-4.727,2.824-7.045,2.824
		c-0.835,0-1.668-0.118-2.504-0.352c-5.912-1.652-14.854-6.333-23.893-13.504c-11.118,8.236-21.191,19.741-24.898,35.488
		c-7.564,32.13,25.883,58.495,55.138,60.378c4.6,0.296,10.149,0.365,16.251,0.18C406.524,614.042,406.163,612.1,406.112,611.806z"/>
	<path style="fill:#FFFFFF;" d="M476.323,654.955c1.174,2.279,2.769,4.708,4.863,6.557c1.632,0.826,8.055-0.549,14.414-2.938
		l-1.641-4.456c-5.024,0.482-11.132,0.839-17.571,0.839C476.366,654.956,476.345,654.955,476.323,654.955z"/>
</g>
<g>
	<path style="fill:#FFFFFF;" d="M447.544,598.518c-0.31-0.112-0.632-0.17-0.956-0.17c-1.179,0-2.242,0.746-2.644,1.855
		c-0.255,0.706-0.221,1.469,0.098,2.149c0.318,0.68,0.881,1.194,1.586,1.449c1.459,0.528,3.089-0.269,3.602-1.683
		C449.758,600.661,449.001,599.046,447.544,598.518z"/>
	<path style="fill:#FFFFFF;" d="M512.822,629.285c-1.63,0.159-3.184-0.688-3.936-2.136c-0.138-0.264-14.404-26.955-45.172-38.103
		c-4.857-1.76-9.774-2.652-14.613-2.652c-14.264,0-25.011,7.658-29.896,11.931l11.444,9.946c1.265,1.1,1.71,2.871,1.116,4.438
		c-0.589,1.555-2.08,2.582-3.74,2.582c-0.013,0-0.025,0-0.038,0l-12.542-0.116c2.958,7.513,11.46,21.958,34.347,28.747
		c6.69,1.985,15.886,3.034,26.594,3.034c12.531,0,23.582-1.439,26.714-2.209c0.353-0.087,0.721-0.132,1.092-0.132
		c1.593,0,4.419,0,20.373,17.166l2.182-16.85c0.072-0.561,0.263-1.099,0.559-1.58l10.11-16.457L512.822,629.285z M442.903,611.323
		c-2.712-0.98-4.882-2.963-6.107-5.579c-1.224-2.615-1.357-5.551-0.374-8.266c1.545-4.266,5.63-7.131,10.166-7.131
		c1.255,0,2.494,0.218,3.682,0.648c5.605,2.032,8.513,8.243,6.482,13.847c-1.543,4.265-5.627,7.131-10.163,7.131
		C445.332,611.974,444.091,611.755,442.903,611.323z M481.434,623.163c-11.179,15.756-17.015,18.256-19.949,18.256
		c-0.903,0-1.531-0.237-1.955-0.397c-0.957-0.36-3.871-1.459-9.542-12.686c-0.996-1.972-0.205-4.377,1.766-5.373
		c1.972-1,4.377-0.206,5.374,1.765c1.658,3.279,3.72,6.68,4.965,8.263c2.004-1.314,5.683-5.207,9.355-9.845l-11.6-3.195
		c-2.13-0.587-3.38-2.789-2.794-4.919c0.587-2.131,2.791-3.379,4.919-2.794l17.26,4.755c1.257,0.347,2.267,1.284,2.705,2.514
		C482.377,620.734,482.188,622.1,481.434,623.163z"/>
</g>
<path style="fill:#FFFFFF;" d="M366.652,293.553c2.759,7.545,5.453,14.045,8.306,20.928c3.973,9.583,8.042,19.416,12.666,32.887
	c-1.292-8.529-1.644-17.597,1.143-25.025c-2.113-5.523-4.081-10.36-6.088-15.292c-2.159-5.306-4.392-10.792-6.854-17.279
	c-2.94-7.749-5.817-15-8.626-21.814c-2.683,1.96-5.318,3.979-7.909,6.054C361.792,280.479,364.261,287.014,366.652,293.553z"/>
<path style="fill:#FFFFFF;" d="M355.506,352.322c6.619,7.681,12.966,15.061,18.143,23.396c1.289-1.358,2.5-2.585,3.61-3.675
	c-5.227-8.202-11.472-15.45-17.965-22.985c-6.877-7.981-13.988-16.233-20.681-26.449c-3.566-5.443-5.232-13.946-5.689-23.796
	c-1.552,1.715-3.075,3.456-4.575,5.218c0.817,8.643,2.683,16.13,6.082,21.318C341.304,335.839,348.524,344.219,355.506,352.322z"/>
<path style="fill:#B40F01;" d="M500,715.079c-70.806,0-137.373-27.573-187.44-77.64C262.494,587.373,234.921,520.806,234.921,450
	s27.573-137.373,77.639-187.44c50.067-50.066,116.634-77.639,187.44-77.639s137.373,27.573,187.439,77.639
	c50.066,50.067,77.64,116.634,77.64,187.44s-27.573,137.373-77.64,187.439S570.806,715.079,500,715.079L500,715.079z M500,205.079
	c-135.05,0-244.921,109.871-244.921,244.921S364.95,694.921,500,694.921S744.921,585.05,744.921,450S635.05,205.079,500,205.079
	L500,205.079z"/>
<g>
	<path style="fill:#B40F01;" d="M173.987,725.464h79.177v17.457h-60.961v33.206h50.524v17.837h-50.524v38.14h60.393v17.457h-78.608
		V725.464z"/>
	<path style="fill:#B40F01;" d="M271.185,724.46h19.8l0.721,1.98c0.238,0.962,0.208,1.831-0.091,2.61
		c-0.301,0.781-0.691,1.35-1.17,1.71l-0.72,0.54c-0.962,0.841-1.439,3.932-1.439,9.27c0,5.341,0.238,11.312,0.72,17.91
		c0.478,6.601,0.72,10.201,0.72,10.8c6.238-6.238,13.798-9.36,22.68-9.36c9.6,0,17.938,3.933,25.021,11.79
		c7.079,7.861,10.62,18.872,10.62,33.03c0,14.642-3.69,26.101-11.07,34.38c-7.38,8.28-16.051,12.42-26.01,12.42
		c-9.242,0-17.101-3.42-23.58-10.26l-3.42,8.28h-12.78V724.46z M307.905,776.48c-3.6,0-6.87,0.962-9.81,2.88
		c-2.941,1.921-5.071,4.441-6.39,7.56c-1.322,3.24-1.98,8.641-1.98,16.2c0,7.92,0.18,13.202,0.54,15.84
		c0.479,3.24,1.378,5.972,2.7,8.19c1.319,2.222,2.908,3.842,4.77,4.86c1.859,1.021,3.569,1.71,5.13,2.069
		c1.559,0.36,3.119,0.54,4.681,0.54c2.16,0,4.319-0.329,6.479-0.99c2.16-0.657,4.47-1.858,6.931-3.6
		c2.458-1.738,4.469-4.559,6.029-8.46c1.559-3.898,2.341-8.609,2.341-14.13c0-6.48-0.782-11.939-2.341-16.38
		c-1.561-4.438-3.571-7.619-6.029-9.54c-2.461-1.918-4.742-3.24-6.841-3.96C312.014,776.841,309.944,776.48,307.905,776.48z"/>
	<path style="fill:#B40F01;" d="M364.462,761.9h38.341v71.82h19.26v15.84h-58.681v-15.84h21.061v-55.98h-19.98V761.9z
		 M385.433,729.5c2.34-2.277,5.188-3.42,8.55-3.42c3.358,0,6.179,1.143,8.46,3.42c2.278,2.281,3.42,5.103,3.42,8.46
		c0,3.361-1.142,6.21-3.42,8.551c-2.281,2.34-5.102,3.51-8.46,3.51c-3.361,0-6.21-1.17-8.55-3.51
		c-2.341-2.341-3.511-5.189-3.511-8.551C381.922,734.603,383.092,731.781,385.433,729.5z"/>
	<path style="fill:#B40F01;" d="M514.261,775.221l-9.72,14.76l-1.799-0.54c-2.042-0.72-3.061-2.039-3.061-3.96v-0.36
		c-5.401-6.598-12.241-9.899-20.521-9.899c-4.202,0-7.681,0.871-10.44,2.609c-2.762,1.741-4.14,3.69-4.14,5.851
		c0,3.001,2.16,5.521,6.48,7.56c1.8,0.841,6.39,2.34,13.77,4.5s12.93,4.261,16.653,6.3c8.998,5.04,13.498,12.061,13.498,21.061
		c0,7.56-3.33,14.161-9.989,19.8c-6.66,5.639-15.634,8.46-26.912,8.46c-14.521,0-26.702-4.559-36.54-13.68l-1.62-1.44l9.72-16.92
		l2.341,1.08c0.838,0.36,1.439,0.9,1.8,1.62c0.359,0.72,0.54,1.321,0.54,1.8v0.72v0.181c2.039,2.401,5.099,4.741,9.18,7.02
		c4.078,2.281,8.879,3.42,14.4,3.42c5.518,0,9.959-1.018,13.319-3.06c3.358-2.039,5.041-4.438,5.041-7.2
		c0-3.24-2.223-5.94-6.661-8.1c-2.159-1.08-6.092-2.489-11.789-4.23c-5.701-1.738-9.091-2.79-10.171-3.15
		c-14.521-5.04-21.779-12.96-21.779-23.76c0-7.318,3.239-13.438,9.72-18.359c6.48-4.92,14.698-7.381,24.66-7.381
		c13.438,0,24.301,4.621,32.581,13.86L514.261,775.221z"/>
	<path style="fill:#B40F01;" d="M532.721,761.9h18.361v48.6c0,7.442,0.9,12.96,2.699,16.561c2.998,5.76,7.439,8.64,13.32,8.64
		c3.24,0,6.359-1.018,9.359-3.06c2.998-2.039,5.4-4.618,7.201-7.74c1.918-3.479,2.879-8.46,2.879-14.94V761.9h18.541v77.58
		c0,3.001,0.238,5.161,0.719,6.479l1.262,3.601h-19.801l-0.359-2.34c-0.242-2.16-0.361-3.78-0.361-4.86
		c-6.361,6.12-13.859,9.18-22.5,9.18c-6.002,0-11.52-1.62-16.559-4.859c-5.041-3.24-8.82-7.74-11.342-13.5
		c-2.4-5.519-3.6-13.078-3.6-22.681L532.721,761.9z"/>
	<path style="fill:#B40F01;" d="M655.54,829.311c2.58,2.582,3.871,5.67,3.871,9.27c0,3.601-1.291,6.66-3.871,9.181
		c-2.582,2.52-5.73,3.779-9.449,3.779c-3.721,0-6.902-1.26-9.539-3.779c-2.643-2.521-3.961-5.58-3.961-9.181
		c0-3.6,1.318-6.688,3.961-9.27c2.637-2.579,5.818-3.87,9.539-3.87C649.81,825.44,652.958,826.731,655.54,829.311z"/>
	<path style="fill:#B40F01;" d="M683.174,761.9h19.08l-0.359,9.36c6.957-7.561,15.84-11.341,26.641-11.341
		c9.598,0,17.578,3.303,23.939,9.9l1.26,1.26l-8.461,17.46l-2.699-2.52c-0.721-0.72-1.801-2.16-3.24-4.32
		c-2.641-3.479-6.48-5.22-11.52-5.22c-8.521,0-15.422,4.202-20.701,12.6c-3.6,5.643-5.398,11.582-5.398,17.82v42.84h-18.541V761.9z"
		/>
	<path style="fill:#B40F01;" d="M766.155,724.46h19.801l0.719,1.98c0.24,0.962,0.209,1.831-0.09,2.61
		c-0.301,0.781-0.691,1.35-1.17,1.71l-0.721,0.54c-0.961,0.841-1.439,3.932-1.439,9.27c0,5.341,0.24,11.312,0.721,17.91
		c0.479,6.601,0.719,10.201,0.719,10.8c6.238-6.238,13.799-9.36,22.682-9.36c9.598,0,17.938,3.933,25.02,11.79
		c7.078,7.861,9.617,18.872,9.617,33.03c0,14.642-2.688,26.101-10.068,34.38c-7.379,8.28-16.051,12.42-26.01,12.42
		c-9.242,0-17.1-3.42-23.58-10.26l-3.42,8.28h-12.779V724.46z M802.876,776.48c-3.602,0-6.871,0.962-9.811,2.88
		c-2.941,1.921-5.07,4.441-6.391,7.56c-1.322,3.24-1.98,8.641-1.98,16.2c0,7.92,0.182,13.202,0.541,15.84
		c0.479,3.24,1.379,5.972,2.699,8.19c1.32,2.222,2.908,3.842,4.771,4.86c1.857,1.021,3.568,1.71,5.129,2.069
		c1.559,0.36,3.119,0.54,4.68,0.54c2.16,0,4.32-0.329,6.48-0.99c2.16-0.657,4.469-1.858,6.93-3.6
		c2.459-1.738,4.469-4.559,6.031-8.46c1.557-3.898,2.34-8.609,2.34-14.13c0-6.48-0.783-11.939-2.34-16.38
		c-1.562-4.438-3.572-7.619-6.031-9.54c-2.461-1.918-4.742-3.24-6.84-3.96C806.983,776.841,804.915,776.48,802.876,776.48z"/>
</g>
</svg>
