<?xml version="1.0" encoding="utf-8"?>
<!-- Generator: Adobe Illustrator 14.0.0, SVG Export Plug-In . SVG Version: 6.00 Build 43363)  -->
<!DOCTYPE svg PUBLIC "-//W3C//DTD SVG 1.1//EN" "http://www.w3.org/Graphics/SVG/1.1/DTD/svg11.dtd">
<svg version="1.1" id="Shibuya_rb_Logo" xmlns="http://www.w3.org/2000/svg" xmlns:xlink="http://www.w3.org/1999/xlink" x="0px"
	 y="0px" width="1000px" height="1000px" viewBox="0 0 1000 1000" enable-background="new 0 0 1000 1000" xml:space="preserve">
<path fill="#B40F01" d="M572.756,301.067c-6.699,8.391-12.636,28.957-15.685,44.018c-2.625,12.969-6.121,36.253-0.048,46.48
	c8.061,13.579,18.311,16.429,25.49,16.429c18.177,0,35.425-17.569,44.089-28.042c12.262-14.822,21.863-32.75,23.891-44.611
	c0-0.001,0-0.002,0-0.003c21.73,23.059,32.449,47.641,43.743,76.6c7.433,19.06,18.032,43.846,29.07,68.339
	c1.296-9.649,1.99-19.489,2.025-29.486c0.439-124.447-100.092-225.686-224.539-226.124
	c-124.447-0.438-225.688,100.089-226.125,224.537c-0.426,120.818,94.313,219.753,213.709,225.825
	c-2.104-19.074-3.279-37.021-3.54-48.536c0.855,0.004,1.71,0.008,2.591,0.008c27.737,0,67.844-2.057,102.6-11.767
	c29.206-8.161,64.445-20.58,94.533-35.453c8.999-12.822,16.704-26.619,22.907-41.214c-30.95,22.556-85.127,42.718-123.899,53.552
	c-32.977,9.213-72.374,10.929-98.725,10.82c-0.864-62.26-13.707-98.409-38.268-107.496c-7.789-2.882-15.831-4.753-23.608-6.563
	c-16.508-3.841-32.102-7.469-42.647-20.177c-0.03-0.037-0.06-0.078-0.09-0.114c2.997-1.254,5.522-3.351,7.458-5.405
	c4.494,3.372,11.463,7.318,19.464,7.318c1.159,0,2.339-0.083,3.537-0.262c9.993-1.496,18.291-9.077,24.665-22.533
	c1.418-2.995,0.141-6.572-2.854-7.991c-2.995-1.419-6.573-0.141-7.991,2.854c-4.545,9.595-9.779,14.91-15.556,15.796
	c-7.43,1.14-15.313-5.372-17.709-7.961c-1.292-1.416-3.182-2.129-5.087-1.92c-1.905,0.209-3.596,1.316-4.55,2.978
	c-1.512,2.635-4.994,6.418-7,6.283c-0.438-0.024-1.13-0.357-1.991-1.18c-8.008-15.898-12.835-37.184-12.292-50.534
	c5.299,4.134,10.844,6.232,16.572,6.232c0.1,0,0.2,0,0.3-0.002c12.234-0.155,20.04-10.07,20.367-10.492
	c2.017-2.608,1.537-6.336-1.056-8.372c-2.593-2.036-6.356-1.581-8.411,0.998c-0.047,0.058-4.723,5.833-11.133,5.868
	c-0.019,0-0.039,0-0.058,0c-3.913,0-7.987-2.119-12.146-6.309c3.41-2.699,9.709-6.286,15.853-9.784
	c14.205-8.088,33.658-19.165,54.219-37.2c28.317-24.839,57.465-42.874,80.024-49.52l2.785-0.552
	c15.134-3.005,27.088-5.379,41.217-5.379c6.078,0,12.223,0.445,18.785,1.36c1.056,0.147,2.114,0.409,3.176,0.738
	C577.889,295.395,575.164,298.051,572.756,301.067z M440.221,326.3c5.538-22.268,21.48-58.126,65.461-38.977
	C486.051,294.25,463.382,307.763,440.221,326.3z M582.133,308.554c0.395-0.494,0.8-0.975,1.214-1.443
	c0.094-0.105,0.192-0.204,0.286-0.308c0.328-0.361,0.657-0.72,0.995-1.065c0.084-0.086,0.172-0.166,0.257-0.25
	c0.357-0.357,0.718-0.71,1.086-1.049c0.061-0.055,0.122-0.106,0.182-0.16c0.4-0.363,0.806-0.718,1.218-1.059
	c0.032-0.026,0.065-0.051,0.099-0.078c0.443-0.365,0.894-0.717,1.35-1.055c0.008-0.005,0.016-0.011,0.023-0.017
	c5.106-3.778,10.956-5.907,16.672-5.907c5.403,0,10.76,1.813,15.921,5.39c12.674,8.782,16.782,16.132,17.641,22.751c0,0,0,0,0,0
	c0,0.003,0.001,0.007,0.001,0.011c0.15,1.162,0.2,2.302,0.179,3.423c-0.001,0.026-0.001,0.051-0.002,0.077
	c-0.024,1.091-0.114,2.165-0.247,3.224c-0.011,0.082-0.021,0.164-0.032,0.246c-0.034,0.263-0.07,0.524-0.109,0.785
	c-0.014,0.088-0.026,0.177-0.039,0.265c-0.052,0.33-0.104,0.659-0.16,0.986c-3.28,19.186-34,62.675-56.151,62.675
	c-5.993,0-10.956-3.453-15.172-10.555c-2.226-3.747-2.708-17.229,1.491-37.974C572.794,327.896,578.521,313.078,582.133,308.554z"/>
<path fill="#B40F01" d="M500,715.079c-70.806,0-137.373-27.573-187.44-77.64C262.494,587.373,234.921,520.806,234.921,450
	s27.573-137.373,77.639-187.44c50.067-50.066,116.634-77.639,187.44-77.639s137.373,27.573,187.439,77.639
	c50.066,50.067,77.64,116.634,77.64,187.44s-27.573,137.373-77.64,187.439S570.806,715.079,500,715.079L500,715.079z M500,205.079
	c-135.05,0-244.921,109.871-244.921,244.921S364.95,694.921,500,694.921S744.921,585.05,744.921,450S635.05,205.079,500,205.079
	L500,205.079z"/>
<g>
	<path fill="#B40F01" d="M738.632,847.343c2.58,2.582,3.871,5.67,3.871,9.271c0,3.6-1.291,6.659-3.871,9.18
		c-2.582,2.52-5.73,3.779-9.449,3.779c-3.721,0-6.903-1.26-9.539-3.779c-2.643-2.521-3.961-5.58-3.961-9.18
		c0-3.601,1.318-6.688,3.961-9.271c2.636-2.579,5.818-3.87,9.539-3.87C732.901,843.473,736.05,844.764,738.632,847.343"/>
	<path fill="#B40F01" d="M766.266,779.933h19.08l-0.359,9.36c6.957-7.561,15.84-11.341,26.641-11.341
		c9.598,0,17.578,3.303,23.939,9.9l1.26,1.26l-8.461,17.46l-2.699-2.52c-0.721-0.72-1.801-2.16-3.24-4.32
		c-2.641-3.479-6.48-5.22-11.52-5.22c-8.521,0-15.422,4.202-20.701,12.6c-3.6,5.643-5.398,11.582-5.398,17.82v42.84h-18.541V779.933
		z"/>
	<path fill="#B40F01" d="M849.247,742.492h19.801l0.719,1.98c0.24,0.962,0.209,1.831-0.09,2.61c-0.301,0.781-0.691,1.35-1.17,1.71
		l-0.721,0.54c-0.961,0.841-1.439,3.932-1.439,9.27c0,5.341,0.24,11.312,0.721,17.91c0.479,6.601,0.719,10.201,0.719,10.8
		c6.238-6.238,13.799-9.36,22.682-9.36c9.598,0,17.937,3.933,25.02,11.79c7.078,7.861,9.617,18.872,9.617,33.03
		c0,14.642-2.688,26.101-10.068,34.38c-7.38,8.28-16.051,12.42-26.01,12.42c-9.242,0-17.1-3.42-23.58-10.26l-3.42,8.28h-12.779
		V742.492z M885.968,794.513c-3.603,0-6.871,0.962-9.812,2.88c-2.94,1.921-5.069,4.441-6.39,7.56c-1.322,3.24-1.98,8.641-1.98,16.2
		c0,7.92,0.182,13.202,0.541,15.84c0.479,3.24,1.379,5.972,2.699,8.19c1.32,2.222,2.908,3.842,4.771,4.86
		c1.856,1.021,3.567,1.71,5.129,2.069c1.559,0.36,3.119,0.54,4.68,0.54c2.16,0,4.32-0.329,6.48-0.99
		c2.16-0.657,4.469-1.858,6.93-3.6c2.459-1.738,4.469-4.559,6.031-8.46c1.557-3.898,2.34-8.609,2.34-14.13
		c0-6.48-0.783-11.938-2.34-16.38c-1.562-4.438-3.572-7.619-6.031-9.54c-2.461-1.918-4.742-3.24-6.84-3.96
		C890.075,794.873,888.007,794.513,885.968,794.513"/>
	<path fill="#B40F01" d="M153.968,761.719l-10.695,14.611l-1.893-0.557c-2.02-0.618-3.035-1.998-3.047-4.143l-0.002-0.379
		c-4.699-6.902-11.899-10.33-21.6-10.279c-5.797,0.031-10.326,1.473-13.586,4.324c-3.263,2.854-4.881,6.235-4.86,10.139
		c0.032,5.924,3.584,10.943,10.664,15.064c1.263,0.748,6.884,3.207,16.862,7.375c9.974,4.17,17.116,8.258,21.422,12.266
		c6.71,6.14,10.091,13.869,10.14,23.191c0.051,9.451-3.466,17.975-10.542,25.573c-7.08,7.599-17.549,11.433-31.407,11.509
		c-16.13,0.084-29.133-5.199-39.019-15.859l-1.52-1.504l10.112-17.631l2.464,1.121c0.757,0.373,1.356,0.938,1.803,1.691
		c0.444,0.754,0.67,1.385,0.672,1.885l0.004,0.758l0.002,0.377c6.09,7.783,14.677,11.641,25.766,11.582
		c7.307-0.039,12.966-1.959,16.98-5.761c4.009-3.802,6.004-8.095,5.978-12.884c-0.029-5.543-2.953-10.125-8.766-13.75
		c-1.898-1.248-7.423-3.709-16.578-7.377c-9.156-3.668-15.946-7.064-20.372-10.193c-9.234-6.627-13.877-15.046-13.932-25.252
		c-0.048-9.072,3.596-16.871,10.932-23.398c7.337-6.529,16.548-9.822,27.637-9.881c14.487-0.078,26.109,5.09,34.859,15.5
		L153.968,761.719z"/>
	<path fill="#B40F01" d="M175.093,870.42V742.137l19.106-0.104l0.731,1.977c0.12,0.359,0.184,0.781,0.186,1.258
		c0.008,1.322-0.587,2.586-1.779,3.791l0.213,43.144c7.397-7.718,15.598-11.604,24.598-11.652
		c5.279-0.028,10.088,1.387,14.423,4.244c4.335,2.856,7.655,6.799,9.962,11.827c2.186,4.789,3.444,11.744,3.493,20.861v52.561
		l-18.179,0.097v-52.198c-0.043-8.039-1.472-13.553-4.008-16.54c-2.296-2.748-5.304-4.112-9.021-4.093
		c-3.241,0.018-6.537,1.146-9.883,3.383c-3.35,2.239-5.916,4.562-7.702,6.971c-2.386,3.135-3.428,7.341-3.4,12.62v50.039
		L175.093,870.42z"/>
	<path fill="#B40F01" d="M266.617,781.143h38.531v72.719l19.452-0.103l0.085,15.84l-58.68,0.312l-0.085-15.84l20.911-0.112v-55.979
		l-20.129,0.106L266.617,781.143z M287.415,749.735c2.327-2.29,5.171-3.447,8.531-3.466c3.359-0.018,6.185,1.111,8.478,3.375
		c2.291,2.27,3.447,5.084,3.465,8.441c0.018,3.361-1.109,6.216-3.374,8.568c-2.269,2.353-5.083,3.537-8.441,3.555
		c-3.361,0.019-6.217-1.137-8.568-3.464c-2.354-2.328-3.538-5.17-3.557-8.53C283.932,754.856,285.086,752.029,287.415,749.735"/>
	<path fill="#B40F01" d="M344.22,742.411l19.466-0.105l0.73,1.977c0.244,0.961,0.218,1.83-0.076,2.611
		c-0.297,0.782-0.685,1.354-1.161,1.716l-0.717,0.544c-0.957,0.846-1.418,5.899-1.39,11.237c0.029,5.34,0.299,11.31,0.815,17.905
		c0.513,6.598,0.774,10.197,0.777,10.796c6.205-6.271,13.748-9.434,22.63-9.481c9.6-0.051,17.959,3.837,25.083,11.657
		c7.121,7.824,10.721,18.815,10.796,32.974c0.078,14.641-3.551,26.119-10.887,34.438c-7.336,8.32-15.984,12.506-25.943,12.559
		c-9.242,0.05-17.118-3.328-23.635-10.134l-3.375,8.299l-13.113,0.067V742.411z M380.883,796.195c-3.6,0.02-6.866,0.998-9.795,2.932
		c-2.932,1.938-5.047,4.469-6.35,7.594c-1.304,3.248-1.933,8.651-1.893,16.211c0.042,7.919,0.25,13.2,0.625,15.836
		c0.495,3.238,1.409,5.965,2.743,8.176c1.331,2.215,2.929,3.827,4.796,4.835c1.864,1.011,3.578,1.691,5.141,2.042
		c1.56,0.353,3.122,0.523,4.683,0.516c2.16-0.012,4.318-0.353,6.475-1.024c2.156-0.669,4.459-1.883,6.91-3.638
		c2.449-1.751,4.444-4.582,5.984-8.491c1.538-3.907,2.295-8.622,2.266-14.142c-0.035-6.48-0.846-11.936-2.428-16.367
		c-1.585-4.431-3.612-7.601-6.08-9.508c-2.472-1.905-4.76-3.215-6.861-3.924C384.994,796.533,382.922,796.185,380.883,796.195"/>
	<path fill="#B40F01" d="M438.596,781.143h18.489v48.688c0.04,7.44,1.099,12.953,2.918,16.544c3.029,5.744,7.485,8.601,13.365,8.569
		c3.24-0.018,6.354-1.052,9.343-3.11c2.988-2.055,5.376-4.646,7.159-7.778c1.9-3.489,2.707-8.475,2.673-14.955v-47.958h18.416
		l0.413,77.379c0.017,3.001,0.267,5.16,0.755,6.476l1.279,3.594l-19.804,0.105l-0.372-2.338c-0.254-2.158-0.381-3.777-0.386-4.858
		c-6.33,6.154-13.811,9.254-22.451,9.3c-6.002,0.032-11.528-1.559-16.586-4.771c-5.057-3.214-8.86-7.693-11.411-13.439
		c-2.432-5.506-3.67-13.06-3.722-22.661L438.596,781.143z"/>
	<path fill="#B40F01" d="M527.499,781.143h22.86l0.015,2.309c0.129,2.041-0.104,3.36-0.699,3.964l0.182,0.358l21.706,53.885
		l13.121-37.51c3.071-8.774,5.072-15.927,6.004-21.452l0.349-1.554h19.44l-1.062,2.714c-1.653,5.409-4.37,13.405-8.153,23.984
		l-25.376,67.995c-2.368,6.251-4.864,10.886-7.486,13.9c-5.846,6.63-13.387,9.972-22.626,10.021
		c-7.682,0.041-14.234-2.505-19.661-7.635l-1.447-1.433l9.094-16.249l2.53,1.967c0.602,0.475,1.085,1.043,1.449,1.702
		c0.363,0.656,0.546,1.168,0.548,1.528l0.183,0.539c1.211,2.392,3.619,3.58,7.219,3.561c3.479-0.019,6.653-1.537,9.517-4.551
		c1.669-1.809,3.395-4.761,5.172-8.848l2.134-5.052L527.499,781.143z"/>
	<path fill="#B40F01" d="M623.278,790.958c7.876-8.322,18.293-12.518,31.253-12.587c14.64-0.078,24.926,4.848,30.86,14.775
		c3.024,5.024,4.563,11.978,4.611,20.856l0.285,53.64l-17.64,0.094l-0.033-6.3c-8.373,5.562-17.298,8.372-26.776,8.423
		c-8.882,0.047-16.186-2.465-21.911-7.533c-5.728-5.069-8.608-11.144-8.646-18.226c-0.028-5.399,1.744-10.508,5.318-15.327
		c3.574-4.817,8.653-8.444,15.242-10.881c1.078-0.366,2.246-0.732,3.504-1.1s2.396-0.671,3.415-0.918
		c1.018-0.244,2.248-0.462,3.688-0.649c1.438-0.188,2.607-0.344,3.508-0.47c0.898-0.123,2.186-0.25,3.867-0.38
		c1.679-0.127,2.878-0.223,3.599-0.289c0.72-0.062,2.008-0.101,3.87-0.111c1.859-0.01,3.06-0.016,3.6-0.019s1.801-0.01,3.78-0.021
		c1.98-0.011,3.15-0.017,3.51-0.019l-0.002-0.36c-0.031-5.76-0.835-9.955-2.407-12.587c-2.664-4.425-7.537-6.62-14.616-6.583
		c-9,0.049-16.185,2.849-21.555,8.396l-2.148,2.352l-9.785-12.548L623.278,790.958z M672.803,829.214l-0.359,0.002
		c-14.643,0.078-23.46,0.485-26.454,1.221c-4.315,0.985-7.458,2.682-9.424,5.091c-1.967,2.413-2.943,4.938-2.929,7.576
		c0.016,3.001,1.318,5.663,3.911,7.989c2.592,2.326,6.168,3.478,10.729,3.453c7.679-0.041,14.264-3.015,19.753-8.926
		c3.222-3.496,4.817-8.064,4.787-13.706L672.803,829.214z"/>
</g>
<path fill="#B40F01" d="M506.028,346.599c0.576-0.352,1.226-0.5,1.892-0.501c-3.309-2.571-6.896-4.387-10.031-4.92
	c-10.83-1.835-22.936,9.812-24.841,18.406c-1.909,8.597,7.359,17.517,18.188,19.358c10.835,1.837,19.665-0.876,25.089-7.784
	c4.673-5.951,2.091-13.662-2.974-19.796c0.254,1.808-0.344,3.522-1.738,4.375c-2.024,1.236-4.915,0.194-6.457-2.329
	S504.005,347.836,506.028,346.599z"/>
<g>
	<path fill="#FFFFFF" d="M382.681,501.729c18.932-3.162,29.573-1.804,44.925,6.054c20.189,10.785,33.904,19.704,35.319,28.153
		c1.01,6.056-0.202,12.07-3.608,17.885c-0.122,0.557-52.769,72.641-52.769,72.641c-0.601,0.826-1.48,1.336-2.42,1.498
		c-0.933,0.154-1.926-0.039-2.764-0.621c0,0-73.9-50.931-74.199-51.416c-5.115-4.396-8.218-9.684-9.23-15.742"/>
	<path fill="none" stroke="#FFFFFF" d="M382.681,501.729c18.932-3.162,29.573-1.804,44.925,6.054
		c20.189,10.785,33.904,19.704,35.319,28.153c1.01,6.056-0.202,12.07-3.608,17.885c-0.122,0.557-52.769,72.641-52.769,72.641
		c-0.601,0.826-1.48,1.336-2.42,1.498c-0.933,0.154-1.926-0.039-2.764-0.621c0,0-73.9-50.931-74.199-51.416
		c-5.115-4.396-8.218-9.684-9.23-15.742"/>
	<path fill="#FFFFFF" d="M317.935,560.181c-1.354-8.101,7.205-21.501,25.444-39.825c8.706-9.351,21.6-15.664,39.302-18.626"/>
	<path fill="none" stroke="#FFFFFF" d="M317.935,560.181c-1.354-8.101,7.205-21.501,25.444-39.825
		c8.706-9.351,21.6-15.664,39.302-18.626"/>
	<path fill="#B40F01" d="M394.728,584.389c-0.112-0.11-0.223-0.215-0.328-0.317c-9.012,1.398-17.74,2.039-25.846,1.921
		l31.752,31.315L394.728,584.389z"/>
	<path fill="none" stroke="#FFFFFF" d="M394.728,584.389c-0.112-0.11-0.223-0.215-0.328-0.317
		c-9.012,1.398-17.74,2.039-25.846,1.921l31.752,31.315L394.728,584.389z"/>
	<path fill="#B40F01" d="M367.66,547.64l-30.226,27.236c11.94,5.943,30.911,7.802,53.481,4.639L367.66,547.64z"/>
	<path fill="none" stroke="#FFFFFF" d="M367.66,547.64l-30.226,27.236c11.94,5.943,30.911,7.802,53.481,4.639L367.66,547.64z"/>
	<path fill="#B40F01" d="M389.119,540.226c11.094-1.854,21.173-5.457,28.387-10.144c6.504-4.229,9.866-8.877,9.219-12.751
		c-0.649-3.873-5.339-7.176-12.867-9.058c-8.345-2.089-19.047-2.215-30.141-0.357c-11.097,1.855-21.174,5.455-28.385,10.143
		c-6.508,4.231-9.869,8.877-9.221,12.75c0.648,3.872,5.341,7.178,12.868,9.059C367.322,541.953,378.025,542.082,389.119,540.226"/>
	<path fill="none" stroke="#FFFFFF" d="M389.119,540.226c11.094-1.854,21.173-5.457,28.387-10.144
		c6.504-4.229,9.866-8.877,9.219-12.751c-0.649-3.873-5.339-7.176-12.867-9.058c-8.345-2.089-19.047-2.215-30.141-0.357
		c-11.097,1.855-21.174,5.455-28.385,10.143c-6.508,4.231-9.869,8.877-9.221,12.75c0.648,3.872,5.341,7.178,12.868,9.059
		C367.322,541.953,378.025,542.082,389.119,540.226z"/>
	<path fill="#B40F01" d="M329.493,569.313l9.275-34.972c-9.737,10.689-15.469,19.904-14.65,24.806
		C324.764,563.008,326.612,566.41,329.493,569.313"/>
	<path fill="none" stroke="#FFFFFF" d="M329.493,569.313l9.275-34.972c-9.737,10.689-15.469,19.904-14.65,24.806
		C324.764,563.008,326.612,566.41,329.493,569.313z"/>
	<path fill="#B40F01" d="M357.763,544.732c-6.781-1.695-11.698-4.479-14.39-8.06l-8.932,34.121l27.923-25.132
		C360.771,545.407,359.232,545.102,357.763,544.732"/>
	<path fill="none" stroke="#FFFFFF" d="M357.763,544.732c-6.781-1.695-11.698-4.479-14.39-8.06l-8.932,34.121l27.923-25.132
		C360.771,545.407,359.232,545.102,357.763,544.732z"/>
	<path fill="#B40F01" d="M406.058,541.069c-4.989,1.752-10.432,3.153-16.111,4.104c-5.794,0.965-11.505,1.417-16.886,1.36
		l22.95,31.419L406.058,541.069z"/>
	<path fill="none" stroke="#FFFFFF" d="M406.058,541.069c-4.989,1.752-10.432,3.153-16.111,4.104
		c-5.794,0.965-11.505,1.417-16.886,1.36l22.95,31.419L406.058,541.069z"/>
	<path fill="#B40F01" d="M361.718,586.291c-0.189-0.186-0.332-0.397-0.449-0.626c-5.762-0.437-11.116-1.294-15.914-2.576
		l43.321,29.793L361.718,586.291z"/>
	<path fill="none" stroke="#FFFFFF" d="M361.718,586.291c-0.189-0.186-0.332-0.397-0.449-0.626
		c-5.762-0.437-11.116-1.294-15.914-2.576l43.321,29.793L361.718,586.291z"/>
	<path fill="#B40F01" d="M419.753,578.083c-6.219,2.031-12.928,3.742-19.964,5.06c-0.044,0.097-0.09,0.188-0.137,0.285l5.256,31.022
		L419.753,578.083z"/>
	<path fill="none" stroke="#FFFFFF" d="M419.753,578.083c-6.219,2.031-12.928,3.742-19.964,5.06
		c-0.044,0.097-0.09,0.188-0.137,0.285l5.256,31.022L419.753,578.083z"/>
	<path fill="#B40F01" d="M444.559,566.441c-5.242,3.549-11.567,6.737-18.685,9.468c-0.006,0.295-0.059,0.595-0.18,0.883
		l-14.324,35.096l33.315-45.528C444.643,566.386,444.604,566.42,444.559,566.441"/>
	<path fill="none" stroke="#FFFFFF" d="M444.559,566.441c-5.242,3.549-11.567,6.737-18.685,9.468
		c-0.006,0.295-0.059,0.595-0.18,0.883l-14.324,35.096l33.315-45.528C444.643,566.386,444.604,566.42,444.559,566.441z"/>
	<path fill="#B40F01" d="M456.74,536.974c-0.911-5.448-10.659-11.923-20.845-17.652l18.782,29.587
		C456.673,545.052,457.419,541.034,456.74,536.974"/>
	<path fill="none" stroke="#FFFFFF" d="M456.74,536.974c-0.911-5.448-10.659-11.923-20.845-17.652l18.782,29.587
		C456.673,545.052,457.419,541.034,456.74,536.974z"/>
	<path fill="#B40F01" d="M420.235,534.284c-1.426,0.929-2.957,1.816-4.569,2.659l34.463,14.169l-18.772-29.578
		C430.102,525.947,426.301,530.342,420.235,534.284"/>
	<path fill="none" stroke="#FFFFFF" d="M420.235,534.284c-1.426,0.929-2.957,1.816-4.569,2.659l34.463,14.169l-18.772-29.578
		C430.102,525.947,426.301,530.342,420.235,534.284z"/>
	<path fill="#B40F01" d="M411.385,540.606l-10.015,37.123c21.817-4.399,38.719-12.223,47.909-21.566L411.385,540.606z"/>
	<path fill="none" stroke="#FFFFFF" d="M411.385,540.606l-10.015,37.123c21.817-4.399,38.719-12.223,47.909-21.566L411.385,540.606z
		"/>
</g>
</svg>
